LG_walk_Faster02																		
version=1																		
nRows=119																		
nColumns=19																		
inDegrees=yes																		
endheader																		
time	ground_force2_vx	ground_force2_vy	ground_force2_vz	ground_force2_px	ground_force2_py	ground_force2_pz	ground_torque2_x	ground_torque2_y	ground_torque2_z	ground_force1_vx	ground_force1_vy	ground_force1_vz	ground_force1_px	ground_force1_py	ground_force1_pz	ground_torque1_x	ground_torque1_y	ground_torque1_z
5.352	1.277958	220.843292	-27.489029	0.183268	0	-0.476736	5.00E-06	1.216036	2.00E-06	0	0	0	-0.13	0	0.305	0	0	0
5.353	1.35725	213.122665	-24.041519	0.183696	0	-0.478685	2.00E-06	1.15861	3.00E-06	0	0	0	-0.13	0	0.305	0	0	0
5.354	1.35725	204.02504	-20.515438	0.18362	0	-0.480292	5.00E-06	1.050855	3.00E-06	0	0	0	-0.13	0	0.305	0	0	0
5.355	1.357971	198.519257	-18.791485	0.183696	0	-0.480498	8.00E-06	0.969407	3.00E-06	0	0	0	-0.13	0	0.305	0	0	0
5.356	1.357971	189.774979	-15.657337	0.184153	0	-0.480498	8.00E-06	1.050855	2.00E-06	0	0	0	-0.13	0	0.305	0	0	0
5.357	1.823635	186.357513	-14.090322	0.184153	0	-0.478844	6.00E-06	1.037576	2.00E-06	0	0	0	-0.13	0	0.305	0	0	0
5.358	1.902208	179.138748	-12.366568	0.184408	0	-0.478844	6.00E-06	1.037576	2.00E-06	0	0	0	-0.13	0	0.305	0	0	0
5.359	2.14081	170.906311	-11.347912	0.184405	0	-0.478844	5.00E-06	0.8266	2.00E-06	0	0	0	-0.13	0	0.305	0	0	0
5.36	2.371479	167.486923	-9.545824	0.184405	0	-0.480106	5.00E-06	0.8266	0	0	0	0	-0.13	0	0.305	0	0	0
5.361	2.371479	157.693848	-8.76232	0.184405	0	-0.480106	5.00E-06	0.8266	0	0	0	0	-0.13	0	0.305	0	0	0
5.362	3.077909	152.203506	-8.683746	0.183611	0	-0.480106	3.00E-06	0.851645	0.00E+00	0	0	0	-0.13	0	0.305	0	0	0
5.363	3.311462	148.089417	-8.76232	0.184912	0	-0.481432	3.00E-06	0.778183	1.00E-06	0	0	0	-0.13	0	0.305	0	0	0
5.364	3.077909	142.082199	-8.997671	0.184912	0	-0.480748	2.00E-06	0.797927	1.00E-06	0	0	0	-0.13	0	0.305	0	0	0
5.365	3.54718	136.25473	-8.997671	0.185959	0	-0.481432	3.00E-06	0.778183	2.00E-06	0	0	0	-0.13	0	0.305	0	0	0
5.366	3.862192	131.450592	-8.057543	0.185959	0	-0.480748	3.00E-06	0.797927	2.00E-06	0	0	0	-0.13	0	0.305	0	0	0
5.367	3.862192	125.964111	-7.117456	0.185959	0	-0.480534	4.00E-06	1.10519	2.00E-06	0	0	0	-0.13	0	0.305	0	0	0
5.368	3.932104	121.340096	-6.412159	0.185674	0	-0.480026	4.00E-06	1.10519	1.00E-06	0	0	0	-0.13	0	0.305	0	0	0
5.369	3.782175	113.437851	-5.237202	0.18672	0	-0.479852	3.00E-06	0.989204	1.00E-06	0	0	0	-0.13	0	0.305	0	0	0
5.37	4.015005	110.70578	-4.531986	0.18672	0	-0.479852	1.00E-06	0.942128	0.00E+00	0	0	0	-0.13	0	0.305	0	0	0
5.371	4.094301	107.094284	-2.573082	0.186986	0	-0.479852	1.00E-06	0.881546	0	0	0	0	-0.13	0	0.305	0	0	0
5.372	4.094301	100.751877	-2.103054	0.188298	0	-0.47894	3.00E-06	0.881546	0	0	0	0	-0.13	0	0.305	0	0	0
5.373	4.175037	97.153114	-0.457832	0.188298	0	-0.479236	4.00E-06	0.885043	0	0	0	0	-0.13	0	0.305	0	0	0
5.374	4.175037	91.47493	0.090645	0.187396	0	-0.478789	4.00E-06	0.885043	1.00E-06	0	0	0	-0.13	0	0.305	0	0	0
5.375	4.175037	87.532089	0.639076	0.187396	0	-0.479236	4.00E-06	0.848801	1.00E-06	0	0	0	-0.13	0	0.305	0	0	0
5.376	4.25794	82.212593	1.108978	0.187568	0	-0.48471	1.00E-06	0.812084	1.00E-06	0	0	0	-0.13	0	0.305	0	0	0
5.377	3.944372	76.719139	2.676109	0.187911	0	-0.48471	0.00E+00	0.783936	0	0	0	0	-0.13	0	0.305	0	0	0
5.378	3.636576	76.214676	3.224548	0.188247	0	-0.482381	1.00E-06	0.741535	0	0	0	0	-0.13	0	0.305	0	0	0
5.379	3.636576	69.18103	4.634737	0.188958	0	-0.4817	1.00E-06	0.763502	0.00E+00	0	0	0	-0.13	0	0.305	0	0	0
5.38	4.106569	67.635071	5.026552	0.188958	0	-0.4817	1.00E-06	0.741535	0	0	0	0	-0.13	0	0.305	0	0	0
5.381	4.191635	63.686848	5.966681	0.188331	0	-0.4817	2.00E-06	0.669873	0	0	0	0	-0.13	0	0.305	0	0	0
5.382	4.106569	57.859001	6.515194	0.188135	0	-0.479857	1.00E-06	0.617997	1.00E-06	0	0	0	-0.13	0	0.305	0	0	0
5.383	3.484482	57.682709	6.906927	0.188135	0	-0.478524	1.00E-06	0.617997	1.00E-06	0	0	0	-0.13	0	0.305	0	0	0
5.384	3.484482	52.70694	7.142	0.188135	0	-0.478242	1.00E-06	0.683727	1.00E-06	0	0	0	-0.13	0	0.305	0	0	0
5.385	3.7202	51.170246	7.376749	0.185504	0	-0.473497	1.00E-06	0.699329	1.00E-06	0	0	0	-0.13	0	0.305	0	0	0
5.386	3.721643	49.627357	7.846895	0.185131	0	-0.473497	1.00E-06	0.683727	1.00E-06	0	0	0	-0.13	0	0.305	0	0	0
5.387	3.798773	44.306343	7.846895	0.185131	0	-0.475249	1.00E-06	0.658012	0.00E+00	0	0	0	-0.13	0	0.305	0	0	0
5.388	3.798773	41.216705	7.846895	0.185131	0	-0.478625	1.00E-06	0.632783	0	0	0	0	-0.13	0	0.305	0	0	0
5.389	3.250208	38.302589	9.178877	0.187368	0	-0.478625	1.00E-06	0.632783	0	0	0	0	-0.13	0	0.305	0	0	0
5.39	3.099556	36.588844	9.257164	0.187368	0	-0.476059	1.00E-06	0.702876	0	0	0	0	-0.13	0	0.305	0	0	0
5.391	3.250208	34.35437	9.335537	0.187902	0	-0.476059	1.00E-06	0.702876	0	0	0	0	-0.13	0	0.305	0	0	0
5.392	2.941689	31.606098	9.962339	0.188239	0	-0.476059	1.00E-06	0.653895	0	0	0	0	-0.13	0	0.305	0	0	0
5.393	2.941689	31.457245	10.275906	0.194543	0	-0.468118	1.00E-06	0.555275	0	0	0	0	-0.13	0	0.305	0	0	0
5.394	2.708138	29.381668	10.275906	0.196047	0	-0.468118	0.00E+00	0.578493	0	0	0	0	-0.13	0	0.305	0	0	0
5.395	2.708138	25.793324	10.902588	0.196047	0	-0.468118	0	0.578493	0	0	0	0	-0.13	0	0.305	0	0	0
5.396	2.241753	25.43342	11.294283	0.196047	0	-0.468876	0	0.593922	0	0	0	0	-0.13	0	0.305	0	0	0
5.397	2.241753	23.02577	11.451063	0.189078	0	-0.451069	0.00E+00	0.723721	0	0	0	0	-0.13	0	0.305	0	0	0
5.398	2.161015	22.168743	11.451063	0.189078	0	-0.44239	0	0.723721	0	0	0	0	-0.13	0	0.305	0	0	0
5.399	0	0	0	0.2	0	-0.3	0	0	0	0	0	0	-0.13	0	0.305	0	0	0
5.4	0	0	0	0.2	0	-0.3	0	0	0	0	0	0	-0.13	0	0.305	0	0	0
5.401	0	0	0	0.2	0	-0.3	0	0	0	0	0	0	-0.13	0	0.305	0	0	0
5.402	0	0	0	0.2	0	-0.3	0	0	0	0	0	0	-0.13	0	0.305	0	0	0
5.403	0	0	0	0.2	0	-0.3	0	0	0	0	0	0	-0.13	0	0.305	0	0	0
5.404	0	0	0	0.2	0	-0.3	0	0	0	0	0	0	-0.13	0	0.305	0	0	0
5.405	0	0	0	0.2	0	-0.3	0	0	0	0	0	0	-0.13	0	0.305	0	0	0
5.406	0	0	0	0.2	0	-0.3	0	0	0	0	0	0	-0.13	0	0.305	0	0	0
5.407	0	0	0	0.2	0	-0.3	0	0	0	0	0	0	-0.13	0	0.305	0	0	0
5.408	0	0	0	0.2	0	-0.3	0	0	0	0	0	0	-0.13	0	0.305	0	0	0
5.409	0	0	0	0.2	0	-0.3	0	0	0	0	0	0	-0.13	0	0.305	0	0	0
5.41	0	0	0	0.2	0	-0.3	0	0	0	0	0	0	-0.13	0	0.305	0	0	0
5.411	0	0	0	0.2	0	-0.3	0	0	0	0	0	0	-0.13	0	0.305	0	0	0
5.412	0	0	0	0.2	0	-0.3	0	0	0	0	0	0	-0.13	0	0.305	0	0	0
5.413	0	0	0	0.2	0	-0.3	0	0	0	0	0	0	-0.13	0	0.305	0	0	0
5.414	0	0	0	0.2	0	-0.3	0	0	0	0	0	0	-0.13	0	0.305	0	0	0
5.415	0	0	0	0.2	0	-0.3	0	0	0	0	0	0	-0.13	0	0.305	0	0	0
5.416	0	0	0	0.2	0	-0.3	0	0	0	0	0	0	-0.13	0	0.305	0	0	0
5.417	0	0	0	0.2	0	-0.3	0	0	0	0	0	0	-0.13	0	0.305	0	0	0
5.418	0	0	0	0.2	0	-0.3	0	0	0	0	0	0	-0.13	0	0.305	0	0	0
5.419	0	0	0	0.2	0	-0.3	0	0	0	0	0	0	-0.13	0	0.305	0	0	0
5.42	0	0	0	0.2	0	-0.3	0	0	0	0	0	0	-0.13	0	0.305	0	0	0
5.421	0	0	0	0.2	0	-0.3	0	0	0	0	0	0	-0.13	0	0.305	0	0	0
5.422	0	0	0	0.2	0	-0.3	0	0	0	0	0	0	-0.13	0	0.305	0	0	0
5.423	0	0	0	0.2	0	-0.3	0	0	0	0	0	0	-0.13	0	0.305	0	0	0
5.424	0	0	0	0.2	0	-0.3	0	0	0	0	0	0	-0.13	0	0.305	0	0	0
5.425	0	0	0	0.2	0	-0.3	0	0	0	0	0	0	-0.13	0	0.305	0	0	0
5.426	0	0	0	0.2	0	-0.3	0	0	0	0	0	0	-0.13	0	0.305	0	0	0
5.427	0	0	0	0.2	0	-0.3	0	0	0	0	0	0	-0.13	0	0.305	0	0	0
5.428	0	0	0	0.2	0	-0.3	0	0	0	0	0	0	-0.13	0	0.305	0	0	0
5.429	0	0	0	0.2	0	-0.3	0	0	0	0	0	0	-0.13	0	0.305	0	0	0
5.43	0	0	0	0.2	0	-0.3	0	0	0	0	0	0	-0.13	0	0.305	0	0	0
5.431	0	0	0	0.2	0	-0.3	0	0	0	0	0	0	-0.13	0	0.305	0	0	0
5.432	0	0	0	0.2	0	-0.3	0	0	0	0	0	0	-0.13	0	0.305	0	0	0
5.433	0	0	0	0.2	0	-0.3	0	0	0	0	0	0	-0.13	0	0.305	0	0	0
5.434	0	0	0	0.2	0	-0.3	0	0	0	0	0	0	-0.13	0	0.305	0	0	0
5.435	0	0	0	0.2	0	-0.3	0	0	0	0	0	0	-0.13	0	0.305	0	0	0
5.436	0	0	0	0.2	0	-0.3	0	0	0	0	0	0	-0.13	0	0.305	0	0	0
5.437	0	0	0	0.2	0	-0.3	0	0	0	0	0	0	-0.13	0	0.305	0	0	0
5.438	0	0	0	0.2	0	-0.3	0	0	0	0	0	0	-0.13	0	0.305	0	0	0
5.439	0	0	0	0.2	0	-0.3	0	0	0	0	0	0	-0.13	0	0.305	0	0	0
5.44	0	0	0	0.2	0	-0.3	0	0	0	0	0	0	-0.13	0	0.305	0	0	0
5.441	0	0	0	0.2	0	-0.3	0	0	0	0	0	0	-0.13	0	0.305	0	0	0
5.442	0	0	0	0.2	0	-0.3	0	0	0	0	0	0	-0.13	0	0.305	0	0	0
5.443	0	0	0	0.2	0	-0.3	0	0	0	0	0	0	-0.13	0	0.305	0	0	0
5.444	0	0	0	0.2	0	-0.3	0	0	0	0	0	0	-0.13	0	0.305	0	0	0
5.445	0	0	0	0.2	0	-0.3	0	0	0	0	0	0	-0.13	0	0.305	0	0	0
5.446	0	0	0	0.2	0	-0.3	0	0	0	0	0	0	-0.13	0	0.305	0	0	0
5.447	0	0	0	0.2	0	-0.3	0	0	0	0	0	0	-0.13	0	0.305	0	0	0
5.448	0	0	0	0.2	0	-0.3	0	0	0	0	0	0	-0.13	0	0.305	0	0	0
5.449	0	0	0	0.2	0	-0.3	0	0	0	0	0	0	-0.13	0	0.305	0	0	0
5.45	0	0	0	0.2	0	-0.3	0	0	0	0	0	0	-0.13	0	0.305	0	0	0
5.451	0	0	0	0.2	0	-0.3	0	0	0	0	0	0	-0.13	0	0.305	0	0	0
5.452	0	0	0	0.2	0	-0.3	0	0	0	0	0	0	-0.13	0	0.305	0	0	0
5.453	0	0	0	0.2	0	-0.3	0	0	0	0	0	0	-0.13	0	0.305	0	0	0
5.454	0	0	0	0.2	0	-0.3	0	0	0	0	0	0	-0.13	0	0.305	0	0	0
5.455	0	0	0	0.2	0	-0.3	0	0	0	0	0	0	-0.13	0	0.305	0	0	0
5.456	0	0	0	0.2	0	-0.3	0	0	0	0	0	0	-0.13	0	0.305	0	0	0
5.457	0	0	0	0.2	0	-0.3	0	0	0	0	0	0	-0.13	0	0.305	0	0	0
5.458	0	0	0	0.2	0	-0.3	0	0	0	0	0	0	-0.13	0	0.305	0	0	0
5.459	0	0	0	0.2	0	-0.3	0	0	0	0	0	0	-0.13	0	0.305	0	0	0
5.46	0	0	0	0.2	0	-0.3	0	0	0	0	0	0	-0.13	0	0.305	0	0	0
5.461	0	0	0	0.2	0	-0.3	0	0	0	0	0	0	-0.13	0	0.305	0	0	0
5.462	0	0	0	0.2	0	-0.3	0	0	0	0	0	0	-0.13	0	0.305	0	0	0
5.463	0	0	0	0.2	0	-0.3	0	0	0	0	0	0	-0.13	0	0.305	0	0	0
5.464	0	0	0	0.2	0	-0.3	0	0	0	0	0	0	-0.13	0	0.305	0	0	0
5.465	0	0	0	0.2	0	-0.3	0	0	0	0	0	0	-0.13	0	0.305	0	0	0
5.466	0	0	0	0.2	0	-0.3	0	0	0	0	0	0	-0.13	0	0.305	0	0	0
5.467	0	0	0	0.2	0	-0.3	0	0	0	0	0	0	-0.13	0	0.305	0	0	0
5.468	0	0	0	0.2	0	-0.3	0	0	0	0	0	0	-0.13	0	0.305	0	0	0
5.469	0	0	0	0.2	0	-0.3	0	0	0	0	0	0	-0.13	0	0.305	0	0	0
5.47	0	0	0	0.2	0	-0.3	0	0	0	0	0	0	-0.13	0	0.305	0	0	0
